<svg width="59" height="286" viewBox="0 0 59 286" fill="none" xmlns="http://www.w3.org/2000/svg">
<path d="M56.568 63.056L56.568 65.056L58.568 65.056L58.568 63.056L56.568 63.056ZM56.568 46.208L58.568 46.208L58.568 44.208L56.568 44.208L56.568 46.208ZM25.824 19.496L26.0051 21.4878L27.824 21.3224L27.824 19.496L25.824 19.496ZM25.824 2.504L27.824 2.504L27.824 0.503998L25.824 0.503998L25.824 2.504ZM0.208014 34.976C0.208013 46.8656 4.1527 54.5101 9.85969 59.1296C15.4875 63.6849 22.5315 65.056 28.344 65.056L28.344 61.056C23.0685 61.056 17.0445 59.7991 12.3763 56.0204C7.78732 52.3059 4.20801 45.9104 4.20801 34.976L0.208014 34.976ZM28.344 65.056L56.568 65.056L56.568 61.056L28.344 61.056L28.344 65.056ZM58.568 63.056L58.568 46.208L54.568 46.208L54.568 63.056L58.568 63.056ZM56.568 44.208L28.776 44.208L28.776 48.208L56.568 48.208L56.568 44.208ZM28.776 44.208C25.011 44.208 22.2579 43.2745 20.4564 41.6143C18.6837 39.9807 17.528 37.3614 17.528 33.32L13.528 33.32C13.528 38.1346 14.9283 41.9593 17.7457 44.5557C20.5342 47.1255 24.405 48.208 28.776 48.208L28.776 44.208ZM17.528 33.32L17.528 32.456L13.528 32.456L13.528 33.32L17.528 33.32ZM17.528 32.456C17.528 27.1712 19.3009 24.615 21.0099 23.2911C22.8238 21.8858 24.923 21.5862 26.0051 21.4878L25.6429 17.5042C24.3491 17.6218 21.3003 18.0062 18.5602 20.1289C15.7152 22.333 13.528 26.1488 13.528 32.456L17.528 32.456ZM27.824 19.496L27.824 2.504L23.824 2.504L23.824 19.496L27.824 19.496ZM25.824 0.503998L25.392 0.503998L25.392 4.504L25.824 4.504L25.824 0.503998ZM25.392 0.503998C19.9413 0.503998 13.6013 2.14623 8.61227 6.90709C3.59396 11.6959 0.208015 19.3857 0.208014 30.944L4.20801 30.944C4.20801 20.1823 7.33807 13.6521 11.3738 9.8009C15.4388 5.92177 20.6908 4.504 25.392 4.504L25.392 0.503998ZM0.208014 30.944L0.208014 34.976L4.20801 34.976L4.20801 30.944L0.208014 30.944ZM56.568 77.8509L58.568 77.8509L58.568 75.8509L56.568 75.8509L56.568 77.8509ZM3.00001 77.8509L3.00001 75.8509L1.00001 75.8509L1.00001 77.8509L3.00001 77.8509ZM3.00001 135.019L1.00001 135.019L1.00001 137.019L3.00001 137.019L3.00001 135.019ZM15.456 135.019L15.456 137.019L17.456 137.019L17.456 135.019L15.456 135.019ZM15.456 94.4109L15.456 92.4109L13.456 92.4109L13.456 94.4109L15.456 94.4109ZM24.24 94.4109L26.24 94.4109L26.24 92.4109L24.24 92.4109L24.24 94.4109ZM24.24 133.363L22.24 133.363L22.24 135.363L24.24 135.363L24.24 133.363ZM36.48 133.363L36.48 135.363L38.48 135.363L38.48 133.363L36.48 133.363ZM36.48 94.4109L36.48 92.4109L34.48 92.4109L34.48 94.4109L36.48 94.4109ZM44.4 94.4109L46.4 94.4109L46.4 92.4109L44.4 92.4109L44.4 94.4109ZM44.4 134.299L42.4 134.299L42.4 136.299L44.4 136.299L44.4 134.299ZM56.568 134.299L56.568 136.299L58.568 136.299L58.568 134.299L56.568 134.299ZM56.568 75.8509L3.00001 75.8509L3.00001 79.8509L56.568 79.8509L56.568 75.8509ZM1.00001 77.8509L1.00001 135.019L5.00001 135.019L5.00001 77.8509L1.00001 77.8509ZM3.00001 137.019L15.456 137.019L15.456 133.019L3.00001 133.019L3.00001 137.019ZM17.456 135.019L17.456 94.4109L13.456 94.4109L13.456 135.019L17.456 135.019ZM15.456 96.4109L24.24 96.4109L24.24 92.4109L15.456 92.4109L15.456 96.4109ZM22.24 94.4109L22.24 133.363L26.24 133.363L26.24 94.4109L22.24 94.4109ZM24.24 135.363L36.48 135.363L36.48 131.363L24.24 131.363L24.24 135.363ZM38.48 133.363L38.48 94.4109L34.48 94.4109L34.48 133.363L38.48 133.363ZM36.48 96.4109L44.4 96.4109L44.4 92.4109L36.48 92.4109L36.48 96.4109ZM42.4 94.4109L42.4 134.299L46.4 134.299L46.4 94.4109L42.4 94.4109ZM44.4 136.299L56.568 136.299L56.568 132.299L44.4 132.299L44.4 136.299ZM58.568 134.299L58.568 77.8509L54.568 77.8509L54.568 134.299L58.568 134.299ZM3.00001 169.425L3.00001 167.425L1.00001 167.425L1.00001 169.425L3.00001 169.425ZM3.00001 186.345L1.00001 186.345L1.00001 188.345L3.00001 188.345L3.00001 186.345ZM43.896 186.345L45.896 186.345L45.896 184.345L43.896 184.345L43.896 186.345ZM43.896 209.457L41.896 209.457L41.896 211.457L43.896 211.457L43.896 209.457ZM56.568 209.457L56.568 211.457L58.568 211.457L58.568 209.457L56.568 209.457ZM56.568 146.385L58.568 146.385L58.568 144.385L56.568 144.385L56.568 146.385ZM43.896 146.385L43.896 144.385L41.896 144.385L41.896 146.385L43.896 146.385ZM43.896 169.425L43.896 171.425L45.896 171.425L45.896 169.425L43.896 169.425ZM1.00001 169.425L1.00001 186.345L5.00001 186.345L5.00001 169.425L1.00001 169.425ZM3.00001 188.345L43.896 188.345L43.896 184.345L3.00001 184.345L3.00001 188.345ZM41.896 186.345L41.896 209.457L45.896 209.457L45.896 186.345L41.896 186.345ZM43.896 211.457L56.568 211.457L56.568 207.457L43.896 207.457L43.896 211.457ZM58.568 209.457L58.568 146.385L54.568 146.385L54.568 209.457L58.568 209.457ZM56.568 144.385L43.896 144.385L43.896 148.385L56.568 148.385L56.568 144.385ZM41.896 146.385L41.896 169.425L45.896 169.425L45.896 146.385L41.896 146.385ZM43.896 167.425L3.00001 167.425L3.00001 171.425L43.896 171.425L43.896 167.425ZM3 243.703L3 241.703L1 241.703L1 243.703L3 243.703ZM3 260.623L1 260.623L1 262.623L3 262.623L3 260.623ZM43.896 260.623L45.896 260.623L45.896 258.623L43.896 258.623L43.896 260.623ZM43.896 283.735L41.896 283.735L41.896 285.735L43.896 285.735L43.896 283.735ZM56.568 283.735L56.568 285.735L58.568 285.735L58.568 283.735L56.568 283.735ZM56.568 220.663L58.568 220.663L58.568 218.663L56.568 218.663L56.568 220.663ZM43.896 220.663L43.896 218.663L41.896 218.663L41.896 220.663L43.896 220.663ZM43.896 243.703L43.896 245.703L45.896 245.703L45.896 243.703L43.896 243.703ZM1 243.703L1 260.623L5 260.623L5 243.703L1 243.703ZM3 262.623L43.896 262.623L43.896 258.623L3 258.623L3 262.623ZM41.896 260.623L41.896 283.735L45.896 283.735L45.896 260.623L41.896 260.623ZM43.896 285.735L56.568 285.735L56.568 281.735L43.896 281.735L43.896 285.735ZM58.568 283.735L58.568 220.663L54.568 220.663L54.568 283.735L58.568 283.735ZM56.568 218.663L43.896 218.663L43.896 222.663L56.568 222.663L56.568 218.663ZM41.896 220.663L41.896 243.703L45.896 243.703L45.896 220.663L41.896 220.663ZM43.896 241.703L3 241.703L3 245.703L43.896 245.703L43.896 241.703Z" fill="white"/>
</svg>
