<svg width="60" height="307" viewBox="0 0 60 307" fill="none" xmlns="http://www.w3.org/2000/svg">
<path d="M36.912 41.752L38.9117 41.7877L38.9117 41.784L36.912 41.752ZM37.056 32.752L35.0564 32.7125L35.0563 32.72L37.056 32.752ZM39.864 50.896L39.5124 48.9271L37.864 49.2215L37.864 50.896L39.864 50.896ZM39.864 68.32L37.864 68.32L37.864 70.32L39.864 70.32L39.864 68.32ZM24.816 29.224L22.8168 29.1665L22.8165 29.1771L24.816 29.224ZM24.6 38.44L26.5992 38.4981L26.5995 38.4869L24.6 38.44ZM22.008 19.864L22.141 21.8596L24.008 21.7351L24.008 19.864L22.008 19.864ZM22.008 2.368L24.008 2.368L24.008 0.367998L22.008 0.367998L22.008 2.368ZM0.0640013 38.656C0.0640008 52.261 2.33951 60.6468 6.10931 65.6531C9.99664 70.8154 15.1993 72.048 19.992 72.048L19.992 68.048C15.9287 68.048 12.1674 67.0486 9.30468 63.2469C6.32449 59.2892 4.064 51.979 4.064 38.656L0.0640013 38.656ZM19.992 72.048L21 72.048L21 68.048L19.992 68.048L19.992 72.048ZM21 72.048C23.9192 72.048 26.5717 71.4897 28.8936 70.2149C31.2249 68.935 33.0974 67.0016 34.5537 64.4519C37.4157 59.4409 38.7304 51.9396 38.9117 41.7877L34.9123 41.7163C34.7336 51.7244 33.4203 58.3711 31.0803 62.4681C29.9356 64.4724 28.5636 65.833 26.9686 66.7086C25.3643 67.5893 23.4088 68.048 21 68.048L21 72.048ZM38.9117 41.784L39.0557 32.784L35.0563 32.72L34.9123 41.72L38.9117 41.784ZM39.0556 32.7915C39.163 27.3498 39.7436 24.6355 40.377 23.3279C40.6672 22.7287 40.91 22.5501 41.0122 22.4903C41.1217 22.4263 41.2937 22.368 41.664 22.368L41.664 18.368C40.8823 18.368 39.9293 18.4897 38.9926 19.0377C38.0485 19.5899 37.3238 20.4553 36.777 21.5841C35.7364 23.7325 35.165 27.2102 35.0564 32.7125L39.0556 32.7915ZM41.664 22.368C42.1249 22.368 42.3042 22.422 42.4091 22.4784C42.4812 22.5172 42.7222 22.6635 43.0192 23.3008C43.6794 24.7176 44.272 27.7924 44.272 34.264L48.272 34.264C48.272 27.7756 47.7126 23.9024 46.6448 21.6112C46.0778 20.3945 45.3108 19.4968 44.3029 18.9551C43.3278 18.431 42.3551 18.368 41.664 18.368L41.664 22.368ZM44.272 34.264L44.272 35.416L48.272 35.416L48.272 34.264L44.272 34.264ZM44.272 35.416C44.272 42.2972 43.1827 45.6081 42.1488 47.1935C41.6538 47.9524 41.1656 48.3262 40.7737 48.5355C40.3627 48.755 39.9621 48.8468 39.5124 48.9271L40.2156 52.8649C40.7739 52.7652 41.6783 52.587 42.6578 52.064C43.6564 51.5308 44.6442 50.6896 45.4992 49.3785C47.1653 46.8239 48.272 42.5748 48.272 35.416L44.272 35.416ZM37.864 50.896L37.864 68.32L41.864 68.32L41.864 50.896L37.864 50.896ZM39.864 70.32L40.584 70.32L40.584 66.32L39.864 66.32L39.864 70.32ZM40.584 70.32C45.1583 70.32 50.0516 68.646 53.7071 63.4181C57.2712 58.3208 59.504 50.0595 59.504 37.216L55.504 37.216C55.504 49.7165 53.3088 57.0072 50.4289 61.1259C47.6404 65.1141 44.0737 66.32 40.584 66.32L40.584 70.32ZM59.504 37.216L59.504 32.248L55.504 32.248L55.504 37.216L59.504 37.216ZM59.504 32.248C59.504 19.8892 57.4033 12.0856 53.9457 7.33764C50.3806 2.44202 45.6003 1.088 41.16 1.088L41.16 5.088C44.7117 5.088 48.1034 6.10998 50.7123 9.69236C53.4287 13.4224 55.504 20.1988 55.504 32.248L59.504 32.248ZM41.16 1.088L40.512 1.088L40.512 5.088L41.16 5.088L41.16 1.088ZM40.512 1.088C35.7667 1.088 31.3348 2.87189 28.1068 7.50701C24.9736 12.006 23.1094 19.0003 22.8168 29.1665L26.8152 29.2815C27.0986 19.4317 28.9064 13.358 31.3892 9.79299C33.7772 6.36411 36.9053 5.088 40.512 5.088L40.512 1.088ZM22.8165 29.1771L22.6005 38.3931L26.5995 38.4869L26.8155 29.2709L22.8165 29.1771ZM22.6008 38.3819C22.4206 44.5836 21.838 47.7101 21.1145 49.2564C20.7858 49.9588 20.4941 50.1864 20.3226 50.2824C20.124 50.3936 19.8137 50.48 19.2 50.48L19.2 54.48C20.1343 54.48 21.228 54.3594 22.2759 53.7731C23.3509 53.1716 24.1482 52.2112 24.7375 50.9516C25.85 48.5739 26.4194 44.6804 26.5992 38.4981L22.6008 38.3819ZM19.2 50.48C18.6546 50.48 18.3192 50.4026 18.063 50.2612C17.8263 50.1304 17.4619 49.837 17.0708 49.0416C16.2276 47.3265 15.512 43.8088 15.512 36.784L11.512 36.784C11.512 43.8712 12.2004 48.2015 13.4812 50.8064C14.1521 52.171 15.0297 53.1556 16.1295 53.7628C17.2098 54.3594 18.3054 54.48 19.2 54.48L19.2 50.48ZM15.512 36.784L15.512 35.776L11.512 35.776L11.512 36.784L15.512 36.784ZM15.512 35.776C15.512 29.0603 16.7987 25.6584 18.1271 23.9404C19.379 22.3216 20.869 21.9444 22.141 21.8596L21.875 17.8684C19.907 17.9996 17.149 18.6664 14.9629 21.4936C12.8533 24.2216 11.512 28.6677 11.512 35.776L15.512 35.776ZM24.008 19.864L24.008 2.368L20.008 2.368L20.008 19.864L24.008 19.864ZM22.008 0.367998L21.216 0.367998L21.216 4.368L22.008 4.368L22.008 0.367998ZM21.216 0.367998C17.3833 0.367997 11.9409 1.25662 7.51049 6.15666C3.13045 11.0009 0.0640022 19.4145 0.0640016 33.688L4.064 33.688C4.064 19.8815 7.04555 12.6351 10.4775 8.83934C13.8591 5.09937 17.9927 4.368 21.216 4.368L21.216 0.367998ZM0.0640016 33.688L0.0640013 38.656L4.064 38.656L4.064 33.688L0.0640016 33.688ZM24.888 124.193L22.888 124.193L22.888 127.475L25.8053 125.97L24.888 124.193ZM24.888 103.889L25.7747 102.096L22.888 100.668L22.888 103.889L24.888 103.889ZM44.976 113.825L45.8933 115.602L49.4103 113.787L45.8627 112.032L44.976 113.825ZM2.99999 135.425L2.08471 133.646L0.999994 134.205L0.999994 135.425L2.99999 135.425ZM2.99999 153.497L0.999993 153.497L0.999993 156.835L3.94338 155.26L2.99999 153.497ZM56.568 124.841L57.5114 126.604L58.568 126.039L58.568 124.841L56.568 124.841ZM56.568 103.097L58.568 103.097L58.568 101.866L57.4701 101.312L56.568 103.097ZM3 76.0246L3.9021 74.2396L0.999997 72.7729L0.999997 76.0246L3 76.0246ZM3 93.0886L0.999996 93.0886L0.999996 94.3328L2.11614 94.8827L3 93.0886ZM12.792 97.9126L14.792 97.9126L14.792 96.6683L13.6759 96.1185L12.792 97.9126ZM12.792 130.385L13.7073 132.163L14.792 131.605L14.792 130.385L12.792 130.385ZM26.888 124.193L26.888 103.889L22.888 103.889L22.888 124.193L26.888 124.193ZM24.0013 105.681L44.0893 115.617L45.8627 112.032L25.7747 102.096L24.0013 105.681ZM44.0587 112.047L23.9707 122.415L25.8053 125.97L45.8933 115.602L44.0587 112.047ZM0.999994 135.425L0.999993 153.497L4.99999 153.497L4.99999 135.425L0.999994 135.425ZM3.94338 155.26L57.5114 126.604L55.6246 123.077L2.0566 151.733L3.94338 155.26ZM58.568 124.841L58.568 103.097L54.568 103.097L54.568 124.841L58.568 124.841ZM57.4701 101.312L3.9021 74.2396L2.0979 77.8096L55.6659 104.882L57.4701 101.312ZM0.999997 76.0246L0.999996 93.0886L5 93.0886L5 76.0246L0.999997 76.0246ZM2.11614 94.8827L11.9081 99.7067L13.6759 96.1185L3.88385 91.2945L2.11614 94.8827ZM10.792 97.9126L10.792 130.385L14.792 130.385L14.792 97.9126L10.792 97.9126ZM11.8767 128.606L2.08471 133.646L3.91528 137.203L13.7073 132.163L11.8767 128.606ZM11.352 220.196L12.1254 222.04L15.0998 220.793L12.6603 218.683L11.352 220.196ZM2.99999 222.356L2.77913 220.368L0.99999 220.565L0.99999 222.356L2.99999 222.356ZM2.99999 232.436L0.99999 232.436L0.99999 234.436L2.99999 234.436L2.99999 232.436ZM33.024 232.436L33.024 234.436L35.024 234.436L35.024 232.436L33.024 232.436ZM33.024 194.708L35.024 194.708L35.024 192.708L33.024 192.708L33.024 194.708ZM22.872 194.708L22.872 192.708L20.872 192.708L20.872 194.708L22.872 194.708ZM22.872 215.732L22.872 217.732L24.872 217.732L24.872 215.732L22.872 215.732ZM37.128 214.22L36.4623 212.334L35.128 212.805L35.128 214.22L37.128 214.22ZM37.128 232.076L35.128 232.076L35.128 234.076L37.128 234.076L37.128 232.076ZM37.2 232.076L37.2 234.076L37.2396 234.076L37.2791 234.074L37.2 232.076ZM0.0639945 194.42C0.0639938 211.629 6.9954 219.072 10.0437 221.708L12.6603 218.683C10.3806 216.711 4.06399 210.33 4.06399 194.42L0.0639945 194.42ZM10.5785 218.351C8.53798 219.207 4.54995 220.171 2.77913 220.368L3.22085 224.343C5.33803 224.108 9.70201 223.056 12.1254 222.04L10.5785 218.351ZM0.99999 222.356L0.99999 232.436L4.99999 232.436L4.99999 222.356L0.99999 222.356ZM2.99999 234.436L33.024 234.436L33.024 230.436L2.99999 230.436L2.99999 234.436ZM35.024 232.436L35.024 194.708L31.024 194.708L31.024 232.436L35.024 232.436ZM33.024 192.708L22.872 192.708L22.872 196.708L33.024 196.708L33.024 192.708ZM20.872 194.708L20.872 215.732L24.872 215.732L24.872 194.708L20.872 194.708ZM22.872 213.732L22.728 213.732L22.728 217.732L22.872 217.732L22.872 213.732ZM22.728 213.732C22.9995 213.732 23.0726 213.815 22.8919 213.72C22.7529 213.648 22.5238 213.499 22.2283 213.236C21.6409 212.713 20.872 211.806 20.1063 210.383C18.5787 207.544 17.096 202.703 17.096 194.996L13.096 194.996C13.096 203.2 14.6733 208.727 16.5837 212.278C17.5369 214.05 18.5815 215.344 19.5669 216.222C20.0578 216.66 20.5549 217.013 21.04 217.266C21.4834 217.498 22.0785 217.732 22.728 217.732L22.728 213.732ZM17.096 194.996C17.096 187.936 18.8682 183.388 21.2018 180.639C23.5185 177.909 26.5427 176.764 29.496 176.764L29.496 172.764C25.4653 172.764 21.2895 174.354 18.1522 178.05C15.0318 181.727 13.096 187.295 13.096 194.996L17.096 194.996ZM29.496 176.764L30.288 176.764L30.288 172.764L29.496 172.764L29.496 176.764ZM30.288 176.764C33.6365 176.764 36.6157 177.663 38.8051 180.146C41.041 182.681 42.76 187.207 42.76 195.14L46.76 195.14C46.76 186.728 44.951 181.067 41.8049 177.5C38.6123 173.88 34.3555 172.764 30.288 172.764L30.288 176.764ZM42.76 195.14C42.76 203.263 41.198 207.487 39.7398 209.671C38.3378 211.77 36.9132 212.174 36.4623 212.334L37.7936 216.106C38.5668 215.833 40.9582 215.049 43.0662 211.892C45.118 208.82 46.76 203.72 46.76 195.14L42.76 195.14ZM35.128 214.22L35.128 232.076L39.128 232.076L39.128 214.22L35.128 214.22ZM37.128 234.076L37.2 234.076L37.2 230.076L37.128 230.076L37.128 234.076ZM37.2791 234.074C41.3561 233.913 47.0223 232.347 51.627 226.718C56.1943 221.135 59.504 211.811 59.504 196.58L55.504 196.58C55.504 211.3 52.2976 219.581 48.531 224.185C44.8017 228.744 40.3158 229.951 37.1208 230.077L37.2791 234.074ZM59.504 196.58L59.504 193.484L55.504 193.484L55.504 196.58L59.504 196.58ZM59.504 193.484C59.504 177.744 55.3993 168.075 49.5719 162.356C43.7556 156.648 36.5491 155.196 31.008 155.196L31.008 159.196C35.9068 159.196 41.9484 160.479 46.7701 165.211C51.5807 169.932 55.504 178.407 55.504 193.484L59.504 193.484ZM31.008 155.196L28.992 155.196L28.992 159.196L31.008 159.196L31.008 155.196ZM28.992 155.196C23.2417 155.196 15.956 156.989 10.1027 162.744C4.22711 168.522 0.0639953 178.026 0.0639946 192.908L4.06399 192.908C4.064 178.773 8.00087 170.421 12.9072 165.597C17.836 160.75 24.0143 159.196 28.992 159.196L28.992 155.196ZM0.0639946 192.908L0.0639945 194.42L4.06399 194.42L4.06399 192.908L0.0639946 192.908ZM56.568 247.274L58.568 247.274L58.568 245.274L56.568 245.274L56.568 247.274ZM2.99999 247.274L2.99999 245.274L0.999989 245.274L0.999989 247.274L2.99999 247.274ZM2.99999 304.442L0.999987 304.442L0.999987 306.442L2.99999 306.442L2.99999 304.442ZM15.456 304.442L15.456 306.442L17.456 306.442L17.456 304.442L15.456 304.442ZM15.456 263.834L15.456 261.834L13.456 261.834L13.456 263.834L15.456 263.834ZM24.24 263.834L26.24 263.834L26.24 261.834L24.24 261.834L24.24 263.834ZM24.24 302.786L22.24 302.786L22.24 304.786L24.24 304.786L24.24 302.786ZM36.48 302.786L36.48 304.786L38.48 304.786L38.48 302.786L36.48 302.786ZM36.48 263.834L36.48 261.834L34.48 261.834L34.48 263.834L36.48 263.834ZM44.4 263.834L46.4 263.834L46.4 261.834L44.4 261.834L44.4 263.834ZM44.4 303.722L42.4 303.722L42.4 305.722L44.4 305.722L44.4 303.722ZM56.568 303.722L56.568 305.722L58.568 305.722L58.568 303.722L56.568 303.722ZM56.568 245.274L2.99999 245.274L2.99999 249.274L56.568 249.274L56.568 245.274ZM0.999989 247.274L0.999987 304.442L4.99999 304.442L4.99999 247.274L0.999989 247.274ZM2.99999 306.442L15.456 306.442L15.456 302.442L2.99999 302.442L2.99999 306.442ZM17.456 304.442L17.456 263.834L13.456 263.834L13.456 304.442L17.456 304.442ZM15.456 265.834L24.24 265.834L24.24 261.834L15.456 261.834L15.456 265.834ZM22.24 263.834L22.24 302.786L26.24 302.786L26.24 263.834L22.24 263.834ZM24.24 304.786L36.48 304.786L36.48 300.786L24.24 300.786L24.24 304.786ZM38.48 302.786L38.48 263.834L34.48 263.834L34.48 302.786L38.48 302.786ZM36.48 265.834L44.4 265.834L44.4 261.834L36.48 261.834L36.48 265.834ZM42.4 263.834L42.4 303.722L46.4 303.722L46.4 263.834L42.4 263.834ZM44.4 305.722L56.568 305.722L56.568 301.722L44.4 301.722L44.4 305.722ZM58.568 303.722L58.568 247.274L54.568 247.274L54.568 303.722L58.568 303.722Z" fill="#1F2326"/>
</svg>
