<svg width="60" height="316" viewBox="0 0 60 316" fill="none" xmlns="http://www.w3.org/2000/svg">
<path d="M36.912 41.752L38.9117 41.7877L38.9117 41.784L36.912 41.752ZM37.056 32.752L35.0564 32.7125L35.0563 32.72L37.056 32.752ZM39.864 50.896L39.5124 48.9271L37.864 49.2215L37.864 50.896L39.864 50.896ZM39.864 68.32L37.864 68.32L37.864 70.32L39.864 70.32L39.864 68.32ZM24.816 29.224L22.8168 29.1665L22.8165 29.1771L24.816 29.224ZM24.6 38.44L26.5992 38.4981L26.5995 38.4869L24.6 38.44ZM22.008 19.864L22.141 21.8596L24.008 21.7351L24.008 19.864L22.008 19.864ZM22.008 2.368L24.008 2.368L24.008 0.367998L22.008 0.367998L22.008 2.368ZM0.0640013 38.656C0.0640008 52.261 2.33951 60.6468 6.10931 65.6531C9.99664 70.8154 15.1993 72.048 19.992 72.048L19.992 68.048C15.9287 68.048 12.1674 67.0486 9.30468 63.2469C6.32449 59.2892 4.064 51.979 4.064 38.656L0.0640013 38.656ZM19.992 72.048L21 72.048L21 68.048L19.992 68.048L19.992 72.048ZM21 72.048C23.9192 72.048 26.5717 71.4897 28.8936 70.2149C31.2249 68.935 33.0974 67.0016 34.5537 64.4519C37.4157 59.4409 38.7304 51.9396 38.9117 41.7877L34.9123 41.7163C34.7336 51.7244 33.4203 58.3711 31.0803 62.4681C29.9356 64.4724 28.5636 65.833 26.9686 66.7086C25.3643 67.5893 23.4088 68.048 21 68.048L21 72.048ZM38.9117 41.784L39.0557 32.784L35.0563 32.72L34.9123 41.72L38.9117 41.784ZM39.0556 32.7915C39.163 27.3498 39.7436 24.6355 40.377 23.3279C40.6672 22.7287 40.91 22.5501 41.0122 22.4903C41.1217 22.4263 41.2937 22.368 41.664 22.368L41.664 18.368C40.8823 18.368 39.9293 18.4897 38.9926 19.0377C38.0485 19.5899 37.3238 20.4553 36.777 21.5841C35.7364 23.7325 35.165 27.2102 35.0564 32.7125L39.0556 32.7915ZM41.664 22.368C42.1249 22.368 42.3042 22.422 42.4091 22.4784C42.4812 22.5172 42.7222 22.6635 43.0192 23.3008C43.6794 24.7176 44.272 27.7924 44.272 34.264L48.272 34.264C48.272 27.7756 47.7126 23.9024 46.6448 21.6112C46.0778 20.3945 45.3108 19.4968 44.3029 18.9551C43.3278 18.431 42.3551 18.368 41.664 18.368L41.664 22.368ZM44.272 34.264L44.272 35.416L48.272 35.416L48.272 34.264L44.272 34.264ZM44.272 35.416C44.272 42.2972 43.1827 45.6081 42.1488 47.1935C41.6538 47.9524 41.1656 48.3262 40.7737 48.5355C40.3627 48.755 39.9621 48.8468 39.5124 48.9271L40.2156 52.8649C40.7739 52.7652 41.6783 52.587 42.6578 52.064C43.6564 51.5308 44.6442 50.6896 45.4992 49.3785C47.1653 46.8239 48.272 42.5748 48.272 35.416L44.272 35.416ZM37.864 50.896L37.864 68.32L41.864 68.32L41.864 50.896L37.864 50.896ZM39.864 70.32L40.584 70.32L40.584 66.32L39.864 66.32L39.864 70.32ZM40.584 70.32C45.1583 70.32 50.0516 68.646 53.7071 63.4181C57.2712 58.3208 59.504 50.0595 59.504 37.216L55.504 37.216C55.504 49.7165 53.3088 57.0072 50.4289 61.1259C47.6404 65.1141 44.0737 66.32 40.584 66.32L40.584 70.32ZM59.504 37.216L59.504 32.248L55.504 32.248L55.504 37.216L59.504 37.216ZM59.504 32.248C59.504 19.8892 57.4033 12.0856 53.9457 7.33764C50.3806 2.44202 45.6003 1.088 41.16 1.088L41.16 5.088C44.7117 5.088 48.1034 6.10998 50.7123 9.69236C53.4287 13.4224 55.504 20.1988 55.504 32.248L59.504 32.248ZM41.16 1.088L40.512 1.088L40.512 5.088L41.16 5.088L41.16 1.088ZM40.512 1.088C35.7667 1.088 31.3348 2.87189 28.1068 7.50701C24.9736 12.006 23.1094 19.0003 22.8168 29.1665L26.8152 29.2815C27.0986 19.4317 28.9064 13.358 31.3892 9.79299C33.7772 6.36411 36.9053 5.088 40.512 5.088L40.512 1.088ZM22.8165 29.1771L22.6005 38.3931L26.5995 38.4869L26.8155 29.2709L22.8165 29.1771ZM22.6008 38.3819C22.4206 44.5836 21.838 47.7101 21.1145 49.2564C20.7858 49.9588 20.4941 50.1864 20.3226 50.2824C20.124 50.3936 19.8137 50.48 19.2 50.48L19.2 54.48C20.1343 54.48 21.228 54.3594 22.2759 53.7731C23.3509 53.1716 24.1482 52.2112 24.7375 50.9516C25.85 48.5739 26.4194 44.6804 26.5992 38.4981L22.6008 38.3819ZM19.2 50.48C18.6546 50.48 18.3192 50.4026 18.063 50.2612C17.8263 50.1304 17.4619 49.837 17.0708 49.0416C16.2276 47.3265 15.512 43.8088 15.512 36.784L11.512 36.784C11.512 43.8712 12.2004 48.2015 13.4812 50.8064C14.1521 52.171 15.0297 53.1556 16.1295 53.7628C17.2098 54.3594 18.3054 54.48 19.2 54.48L19.2 50.48ZM15.512 36.784L15.512 35.776L11.512 35.776L11.512 36.784L15.512 36.784ZM15.512 35.776C15.512 29.0603 16.7987 25.6584 18.1271 23.9404C19.379 22.3216 20.869 21.9444 22.141 21.8596L21.875 17.8684C19.907 17.9996 17.149 18.6664 14.9629 21.4936C12.8533 24.2216 11.512 28.6677 11.512 35.776L15.512 35.776ZM24.008 19.864L24.008 2.368L20.008 2.368L20.008 19.864L24.008 19.864ZM22.008 0.367998L21.216 0.367998L21.216 4.368L22.008 4.368L22.008 0.367998ZM21.216 0.367998C17.3833 0.367997 11.9409 1.25662 7.51049 6.15666C3.13045 11.0009 0.0640022 19.4145 0.0640016 33.688L4.064 33.688C4.064 19.8815 7.04555 12.6351 10.4775 8.83934C13.8591 5.09937 17.9927 4.368 21.216 4.368L21.216 0.367998ZM0.0640016 33.688L0.0640013 38.656L4.064 38.656L4.064 33.688L0.0640016 33.688ZM59.504 118.536C59.504 101.278 55.198 91.221 49.2297 85.51C43.2684 79.8057 36.0316 78.8081 31.008 78.8081L31.008 82.8081C35.5604 82.8081 41.5716 83.7184 46.4643 88.4001C51.35 93.0751 55.504 101.882 55.504 118.536L59.504 118.536ZM31.008 78.8081L28.848 78.8081L28.848 82.8081L31.008 82.8081L31.008 78.8081ZM28.848 78.8081C23.8942 78.8081 16.5955 79.8066 10.5482 85.4987C4.48553 91.2053 0.0639986 101.264 0.0639979 118.536L4.064 118.536C4.064 101.896 8.31846 93.0908 13.2898 88.4114C18.2765 83.7175 24.3698 82.8081 28.848 82.8081L28.848 78.8081ZM0.0639979 118.536L0.0639977 121.632L4.064 121.632L4.064 118.536L0.0639979 118.536ZM0.0639977 121.632C0.063997 138.835 4.48695 148.874 10.5482 154.579C16.5932 160.269 23.8894 161.288 28.848 161.288L28.848 157.288C24.3746 157.288 18.2788 156.363 13.2898 151.667C8.31704 146.986 4.064 138.197 4.064 121.632L0.0639977 121.632ZM28.848 161.288L31.008 161.288L31.008 157.288L28.848 157.288L28.848 161.288ZM31.008 161.288C36.0417 161.288 43.274 160.25 49.231 154.54C55.1959 148.822 59.504 138.786 59.504 121.632L55.504 121.632C55.504 138.174 51.3521 146.966 46.463 151.652C41.566 156.346 35.5503 157.288 31.008 157.288L31.008 161.288ZM59.504 121.632L59.504 118.536L55.504 118.536L55.504 121.632L59.504 121.632ZM29.496 139.72C26.7934 139.72 23.8095 138.929 21.4665 136.303C19.0905 133.639 17.096 128.78 17.096 120.048L13.096 120.048C13.096 129.316 15.2055 135.293 18.4815 138.965C21.7905 142.675 26.0066 143.72 29.496 143.72L29.496 139.72ZM17.096 120.048C17.096 111.251 19.1408 106.4 21.5512 103.755C23.9342 101.141 26.9574 100.376 29.64 100.376L29.64 96.3761C26.2026 96.3761 21.9538 97.3754 18.5948 101.061C15.2632 104.716 13.096 110.701 13.096 120.048L17.096 120.048ZM29.64 100.376L30.504 100.376L30.504 96.3761L29.64 96.3761L29.64 100.376ZM30.504 100.376C33.2122 100.376 36.0791 101.082 38.3187 103.623C40.6077 106.219 42.544 111.069 42.544 120.048L46.544 120.048C46.544 110.595 44.5203 104.609 41.3193 100.978C38.0689 97.2902 33.9158 96.3761 30.504 96.3761L30.504 100.376ZM42.544 120.048C42.544 128.873 40.6121 133.734 38.3112 136.374C36.0556 138.962 33.1767 139.72 30.504 139.72L30.504 143.72C33.9512 143.72 38.0924 142.714 41.3268 139.002C44.5159 135.342 46.544 129.367 46.544 120.048L42.544 120.048ZM30.504 139.72L29.496 139.72L29.496 143.72L30.504 143.72L30.504 139.72ZM2.99999 212.342L0.999991 212.342L0.999991 213.597L2.12887 214.143L2.99999 212.342ZM56.568 238.262L55.6969 240.063L58.568 241.452L58.568 238.262L56.568 238.262ZM56.568 220.839L58.568 220.839L58.568 219.568L57.4185 219.028L56.568 220.839ZM17.184 202.335L16.2883 200.546L12.6034 202.392L16.3335 204.145L17.184 202.335ZM56.568 182.606L57.4637 184.395L58.568 183.842L58.568 182.606L56.568 182.606ZM56.568 163.598L58.568 163.598L58.568 160.304L55.6451 161.824L56.568 163.598ZM2.99999 191.462L2.07706 189.688L0.999992 190.248L0.999992 191.462L2.99999 191.462ZM2.12887 214.143L55.6969 240.063L57.4391 236.462L3.87112 210.542L2.12887 214.143ZM58.568 238.262L58.568 220.839L54.568 220.838L54.568 238.262L58.568 238.262ZM57.4185 219.028L18.0345 200.524L16.3335 204.145L55.7175 222.649L57.4185 219.028ZM18.0797 204.123L57.4637 184.395L55.6723 180.818L16.2883 200.546L18.0797 204.123ZM58.568 182.606L58.568 163.598L54.568 163.598L54.568 182.606L58.568 182.606ZM55.6451 161.824L2.07706 189.688L3.92292 193.237L57.4909 165.373L55.6451 161.824ZM0.999992 191.462L0.999991 212.342L4.99999 212.342L4.99999 191.462L0.999992 191.462ZM24.888 282.944L22.888 282.944L22.888 286.227L25.8053 284.721L24.888 282.944ZM24.888 262.64L25.7747 260.847L22.888 259.42L22.888 262.64L24.888 262.64ZM44.976 272.576L45.8933 274.353L49.4103 272.538L45.8627 270.783L44.976 272.576ZM2.99999 294.176L2.0847 292.398L0.999987 292.956L0.999987 294.176L2.99999 294.176ZM2.99999 312.248L0.999986 312.248L0.999986 315.586L3.94338 314.012L2.99999 312.248ZM56.568 283.592L57.5114 285.356L58.568 284.79L58.568 283.592L56.568 283.592ZM56.568 261.848L58.568 261.848L58.568 260.618L57.4701 260.063L56.568 261.848ZM2.99999 234.776L3.90209 232.991L0.99999 231.524L0.99999 234.776L2.99999 234.776ZM2.99999 251.84L0.999989 251.84L0.999989 253.084L2.11613 253.634L2.99999 251.84ZM12.792 256.664L14.792 256.664L14.792 255.42L13.6758 254.87L12.792 256.664ZM12.792 289.136L13.7073 290.914L14.792 290.356L14.792 289.136L12.792 289.136ZM26.888 282.944L26.888 262.64L22.888 262.64L22.888 282.944L26.888 282.944ZM24.0013 264.433L44.0893 274.369L45.8627 270.783L25.7747 260.847L24.0013 264.433ZM44.0587 270.799L23.9707 281.167L25.8053 284.721L45.8933 274.353L44.0587 270.799ZM0.999987 294.176L0.999986 312.248L4.99999 312.248L4.99999 294.176L0.999987 294.176ZM3.94338 314.012L57.5114 285.356L55.6246 281.829L2.0566 310.485L3.94338 314.012ZM58.568 283.592L58.568 261.848L54.568 261.848L54.568 283.592L58.568 283.592ZM57.4701 260.063L3.90209 232.991L2.09789 236.561L55.6659 263.633L57.4701 260.063ZM0.99999 234.776L0.999989 251.84L4.99999 251.84L4.99999 234.776L0.99999 234.776ZM2.11613 253.634L11.9081 258.458L13.6758 254.87L3.88385 250.046L2.11613 253.634ZM10.792 256.664L10.792 289.136L14.792 289.136L14.792 256.664L10.792 256.664ZM11.8767 287.358L2.0847 292.398L3.91527 295.954L13.7073 290.914L11.8767 287.358Z" fill="white"/>
</svg>
